<svg xmlns="http://www.w3.org/2000/svg" width="500" height="500" viewBox="0 0 500 500">
<g>
<path d="M 0.00 0.00 L 500.00 0.00 L 500.00 500.00 L 0.00 500.00 ZM 33.00 106.00 L 33.00 370.02 L 105.50 369.50 L 105.76 300.17 C105.90,261.23 106.40,230.98 106.89,231.17 C107.37,231.35 114.68,239.83 123.13,250.01 C146.28,277.89 179.29,317.74 200.54,343.44 C210.97,356.06 220.29,367.20 221.25,368.19 C222.88,369.87 225.60,370.00 259.50,370.00 L 296.00 370.00 L 296.04 336.75 L 296.08 303.50 L 309.70 289.00 C317.20,281.02 323.59,274.41 323.91,274.30 C324.24,274.18 330.35,281.57 337.50,290.71 C362.00,322.03 389.12,356.50 394.57,363.25 L 400.01 370.00 L 442.50 370.00 C470.26,370.00 485.00,369.65 485.00,369.00 C485.00,368.06 481.70,363.62 466.68,344.34 C463.48,340.23 447.08,319.01 430.25,297.18 C413.42,275.36 393.62,249.70 386.26,240.18 C374.59,225.06 373.05,222.64 374.19,221.19 C376.00,218.90 469.09,117.74 475.36,111.25 L 480.43 106.00 L 398.12 106.00 L 378.36 127.25 C310.38,200.37 297.57,214.00 296.83,214.00 C296.37,214.00 296.00,189.70 296.00,160.00 L 296.00 106.00 L 209.97 106.00 L 210.24 175.50 C210.38,213.73 210.24,245.00 209.92,245.00 C209.61,245.00 205.53,240.39 200.86,234.75 C185.96,216.76 143.54,165.46 118.62,135.30 L 94.50 106.11 Z" fill="rgb(0,0,0)"/>
<path d="M 33.00 238.01 L 33.00 106.00 L 63.75 106.05 L 94.50 106.11 L 118.62 135.30 C143.54,165.46 185.96,216.76 200.86,234.75 C205.53,240.39 209.61,245.00 209.92,245.00 C210.24,245.00 210.38,213.73 210.24,175.50 L 209.97 106.00 L 252.99 106.00 L 296.00 106.00 L 296.00 160.00 C296.00,189.70 296.37,214.00 296.83,214.00 C297.57,214.00 310.38,200.37 378.36,127.25 L 398.12 106.00 L 439.28 106.00 L 480.43 106.00 L 475.36 111.25 C469.09,117.74 376.00,218.90 374.19,221.19 C373.05,222.64 374.59,225.06 386.26,240.18 C393.62,249.70 413.42,275.36 430.25,297.18 C447.08,319.01 463.48,340.23 466.68,344.34 C481.70,363.62 485.00,368.06 485.00,369.00 C485.00,369.65 470.26,370.00 442.50,370.00 L 400.01 370.00 L 394.57 363.25 C389.12,356.50 362.00,322.03 337.50,290.71 C330.35,281.57 324.24,274.18 323.91,274.30 C323.59,274.41 317.20,281.02 309.70,289.00 L 296.08 303.50 L 296.04 336.75 L 296.00 370.00 L 259.50 370.00 C225.60,370.00 222.88,369.87 221.25,368.19 C220.29,367.20 210.97,356.06 200.54,343.44 C179.29,317.74 146.28,277.89 123.13,250.01 C114.68,239.83 107.37,231.35 106.89,231.17 C106.40,230.98 105.90,261.23 105.76,300.17 L 105.50 369.50 L 69.25 369.76 L 33.00 370.02 L 33.00 238.01 Z" fill="rgb(254,254,254)"/>
</g>
</svg>